g blocker_standard
v -6.447205 12.43879 -7.792549
v -4.544128 11.62474 -5.720963
v -5.677155 10.51751 -5.720963
v -7.26123 10.53574 -5.720963
v -8.368469 11.66874 -5.720963
v -8.35025 13.25283 -5.720963
v -7.217255 14.36007 -5.720963
v -5.633148 14.34184 -5.720963
v -4.525909 13.20883 -5.720963
v -9.872223 10.174 -3.474754
v 9.680664 10.174 -3.474754
v -9.872223 13.98614 -3.474754
v 9.680664 13.98614 -3.474754
v -9.872223 13.98614 -5.057747
v 9.680664 13.98614 -5.057747
v -9.872223 10.174 -5.057747
v 9.680664 10.174 -5.057747
v 5.58902 1.396962 -2.355896
v 7.87793 1.440359 -2.398682
v 4.907959 15.03072 -2.323212
v 7.19516 15.11751 -2.323212
v 4.907928 15.03072 -3.448891
v 7.195099 15.11751 -3.448891
v 5.517199 11.16904 -2.443687
v 7.118517 11.16904 -2.443687
v 5.517199 9.53907 -2.40567
v 7.118517 9.569965 -2.436569
v -7.903931 1.448153 -2.406395
v -5.615082 1.39318 -2.352173
v -7.009186 15.7398 -2.323212
v -4.723022 15.62985 -2.323212
v -7.009186 15.7398 -3.448891
v -4.723022 15.62985 -3.448891
v -6.932611 11.63275 -2.443687
v -5.333175 11.55512 -2.443687
v -7.011623 10.00469 -2.40567
v -5.41069 9.957923 -2.436569
v 5.589752 1.377216 -3.448891
v 7.880219 1.377215 -3.448891
v 5.612488 1.377215 7.026909
v 7.213806 1.377215 7.026909
v 5.612488 1.377215 5.434952
v 7.213806 1.377215 5.434952
v -7.907349 1.377214 -3.448891
v -5.615845 1.377215 -3.448891
v -7.139557 1.377215 7.026909
v -5.538239 1.377215 7.026909
v -7.139557 1.377215 5.434952
v -5.538239 1.377215 5.434952
v 6.137482 12.43879 -7.702576
v 8.013092 13.31418 -5.630997
v 8.082764 11.73151 -5.630997
v 7.012848 10.56316 -5.630997
v 5.430176 10.49353 -5.630997
v 4.261841 11.5634 -5.630997
v 4.1922 13.14606 -5.630997
v 5.262085 14.31442 -5.630997
v 6.844757 14.38405 -5.630997
v -9.292328 -0.1424468 7.792564
v 9.292297 -0.1424468 7.792564
v -8.469513 1.526266 7.792564
v 8.469513 1.526266 7.792564
v -8.469513 1.526266 -6.505493
v 8.469513 1.526266 -6.505493
v -9.292328 -0.1424468 -6.505493
v 9.292297 -0.1424468 -6.505493
v 6.682892 13.93889 -7.058731
v 7.583893 13.11386 -7.058731
v 7.637543 11.89336 -7.058731
v 6.812531 10.99238 -7.058754
v 5.59201 10.93867 -7.058731
v 4.691071 11.76374 -7.058731
v 4.63736 12.9842 -7.058731
v 5.462402 13.8852 -7.058754
v -4.925781 13.04857 -7.076965
v -4.940186 11.79416 -7.076965
v -5.837433 10.91737 -7.076965
v -7.091797 10.9318 -7.076965
v -7.968597 11.82901 -7.076965
v -7.954193 13.08342 -7.076965
v -7.056976 13.96021 -7.076965
v -5.802582 13.94577 -7.076965
v 0 10.174 -5.057747
v 0 10.174 -3.474754
v 0 13.98614 -3.474754
v 0 13.98614 -5.057747
v -9.872223 10.174 -5.057747
v -9.872223 13.98614 -3.474754
v -9.872223 10.174 -3.474754
v -9.872223 13.98614 -5.057747
v 4.907959 15.03072 -2.323212
v 7.19516 15.11751 -2.323212
v 4.907928 15.03072 -3.448891
v 5.58902 1.396962 -2.355896
v 4.907959 15.03072 -2.323212
v 5.517199 9.53907 -2.40567
v 5.612488 1.377215 5.434952
v -7.009186 15.7398 -2.323212
v -4.723022 15.62985 -2.323212
v -7.009186 15.7398 -3.448891
v -7.903931 1.448153 -2.406395
v -7.907349 1.377214 -3.448891
v -7.009186 15.7398 -2.323212
v -7.011623 10.00469 -2.40567
v -7.139557 1.377215 5.434952
v 7.87793 1.440359 -2.398682
v 7.195099 15.11751 -3.448891
v 7.880219 1.377215 -3.448891
v 7.19516 15.11751 -2.323212
v 5.612488 1.377215 7.026909
v 5.517199 11.16904 -2.443687
v 7.213806 1.377215 7.026909
v 7.118517 9.569965 -2.436569
v 7.213806 1.377215 5.434952
v 7.118517 11.16904 -2.443687
v -5.615082 1.39318 -2.352173
v -4.723022 15.62985 -3.448891
v -5.615845 1.377215 -3.448891
v -4.723022 15.62985 -2.323212
v -7.139557 1.377215 7.026909
v -6.932611 11.63275 -2.443687
v -5.538239 1.377215 7.026909
v -5.41069 9.957923 -2.436569
v -5.538239 1.377215 5.434952
v -5.333175 11.55512 -2.443687
v -8.469513 1.526266 7.792564
v 8.469513 1.526266 7.792564
v -8.469513 1.526266 -6.505493
v 8.469513 1.526266 -6.505493
v 9.680664 10.174 -3.474754
v 9.680664 10.174 -5.057747
v 9.680664 13.98614 -3.474754
v 9.680664 13.98614 -5.057747
vt 0.7850419 0.290346
vt 0.8175931 0.2735628
vt 0.7987579 0.2541502
vt 0.7987579 0.2541502
vt 0.8175931 0.2735628
vt 0.8175931 0.3069204
vt 0.7987579 0.3262661
vt 0.7987579 0.3262661
vt 0.8175931 0.3069204
vt 0.9996625 0.2851253
vt 0.9137067 0.146829
vt 0.9996625 0.3118415
vt 0.9422864 0.146829
vt 0.9996625 0.2851253
vt 0.9422864 0.1303125
vt 0.9996625 0.2481391
vt 0.9137067 0.1303125
vt 0.9610957 0.001672372
vt 0.9458085 0.001664028
vt 0.9609858 0.1273558
vt 0.9456986 0.1273474
vt 0.9612974 0.1283319
vt 0.9441558 0.1283319
vt 0.9623142 0.001905434
vt 0.9284098 0.1275511
vt 0.9264677 0.05771016
vt 0.9153632 0.05792445
vt 0.9458085 0.001664028
vt 0.9610957 0.001672372
vt 0.9456986 0.1273474
vt 0.9609857 0.1273558
vt 0.9441556 0.1283319
vt 0.9612939 0.1283319
vt 0.9623142 0.001905434
vt 0.9438213 0.1275512
vt 0.9265265 0.05716177
vt 0.915422 0.05737607
vt 0.9620254 0.002100911
vt 0.9448813 0.001421039
vt 0.9623142 0.1497922
vt 0.9284098 0.07809746
vt 0.9264677 0.002276473
vt 0.9153632 0.00227648
vt 0.9448813 0.001421039
vt 0.9620254 0.002100911
vt 0.9623142 0.1497922
vt 0.9438213 0.07809752
vt 0.9265265 0.002276487
vt 0.915422 0.00227648
vt 0.7850419 0.290346
vt 0.8175931 0.3069204
vt 0.8175931 0.2735628
vt 0.7987579 0.2541502
vt 0.7987579 0.2541502
vt 0.8175931 0.2735628
vt 0.8175931 0.3069204
vt 0.7987579 0.3262661
vt 0.7987579 0.3262661
vt 0.9973208 0.001892115
vt 0.9973208 0.1511834
vt 0.9753016 0.001892115
vt 0.9762589 0.1511834
vt 0.9021751 0.4437689
vt 0.9021751 0.3555974
vt 0.9973208 0.1511834
vt 0.9973208 0.001892115
vt 0.7926587 0.3109073
vt 0.8060311 0.3004106
vt 0.8053409 0.2802454
vt 0.7930613 0.2696005
vt 0.7930613 0.2696005
vt 0.8053409 0.2802454
vt 0.8060311 0.3004106
vt 0.7926587 0.3109073
vt 0.8060311 0.3004106
vt 0.8053409 0.2802454
vt 0.7930613 0.2696005
vt 0.7930613 0.2696005
vt 0.8053409 0.2802454
vt 0.8060311 0.3004106
vt 0.7926587 0.3109073
vt 0.7926587 0.3109073
vt 0.909977 0.2481391
vt 0.909977 0.2851253
vt 0.909977 0.3118415
vt 0.909977 0.2851253
vt 0.9137582 0.1469037
vt 0.9422864 0.1303125
vt 0.9137582 0.1303125
vt 0.9422864 0.1469037
vt 0.9612331 0.1364131
vt 0.944097 0.1364131
vt 0.9623142 0.1497923
vt 0.9730454 0.001905434
vt 0.9730454 0.1497922
vt 0.9730454 0.001905434
vt 0.9730454 0.1497922
vt 0.944097 0.1364131
vt 0.9612263 0.1364131
vt 0.9623142 0.1497923
vt 0.9730454 0.001905434
vt 0.9623142 0.001905434
vt 0.9730454 0.1497922
vt 0.9730454 0.001905434
vt 0.9730454 0.1497922
vt 0.9623142 0.001905434
vt 0.9730454 0.1497922
vt 0.9730454 0.001905434
vt 0.9623142 0.1497922
vt 0.9438213 0.07809752
vt 0.9438213 0.1275512
vt 0.9623142 0.001905434
vt 0.9730454 0.1497922
vt 0.9730454 0.001905434
vt 0.9623142 0.1497922
vt 0.9623142 0.001905434
vt 0.9730454 0.1497922
vt 0.9730454 0.001905434
vt 0.9623142 0.1497922
vt 0.9284098 0.07809746
vt 0.9284098 0.1275511
vt 0.9623142 0.001905434
vt 0.9730454 0.1497922
vt 0.9730454 0.001905434
vt 0.9623142 0.1497922
vt 0.8288629 0.4437689
vt 0.8288629 0.3555974
vt 0.9762589 0.1511834
vt 0.9753016 0.001892115
vt 0.9996625 0.2851253
vt 0.9996625 0.2481391
vt 0.9996625 0.3118415
vt 0.9996625 0.2851253
vn 0 0 -1
vn 0.8762596 -0.374828 -0.3027759
vn 0.3545604 -0.8846556 -0.3027727
vn -0.3748253 -0.8762608 -0.3027756
vn -0.8846495 -0.3545732 -0.3027759
vn -0.8762626 0.3748219 -0.3027747
vn -0.3545669 0.8846526 -0.302774
vn 0.3748252 0.8762603 -0.3027772
vn 0.8846494 0.3545726 -0.3027768
vn -0.5773503 -0.5773503 0.5773502
vn 0.5773503 -0.5773503 0.5773503
vn -0.5773503 0.5773503 0.5773502
vn 0.5773503 0.5773503 0.5773503
vn -0.5773503 0.5773503 -0.5773502
vn 0.5773503 0.5773503 -0.5773503
vn -0.5773503 -0.5773503 -0.5773502
vn 0.5773503 -0.5773503 -0.5773503
vn -0.7027624 -0.03791314 0.7104136
vn 0.7097793 0.03262503 0.7036682
vn -0.5980645 0.5507203 0.5822593
vn 0.5570619 0.6003145 0.5738506
vn -0.6009545 0.55036 -0.5796185
vn 0.5524715 0.603228 -0.5752316
vn -0.7069765 0.487786 0.5121025
vn 0.7071431 0.4954312 0.5044764
vn -0.7073016 -0.4936321 -0.5060155
vn 0.7069234 -0.4861083 -0.5137684
vn -0.7101954 0.04167484 0.7027701
vn 0.7013549 -0.04673649 0.7112785
vn -0.5513769 0.6064799 0.5728574
vn 0.6030877 0.5441979 0.58321
vn -0.5457845 0.6097174 -0.574773
vn 0.6069194 0.5432369 -0.5801228
vn -0.6888452 0.4992629 0.5255749
vn 0.7246398 0.4615286 0.5117504
vn -0.7249267 -0.4573996 -0.5150408
vn 0.6888615 -0.4954897 -0.5291123
vn -0.7062716 -0.03527539 -0.7070615
vn 0.7060788 0.03522791 -0.7072565
vn -0.7069765 0.487786 0.5121025
vn 0.7071431 0.4954312 0.5044764
vn -0.7073016 -0.4936321 -0.5060155
vn 0.7069234 -0.4861083 -0.5137684
vn -0.7055607 0.04414821 -0.7072728
vn 0.7057607 -0.04421664 -0.7070691
vn -0.6888452 0.4992629 0.5255749
vn 0.7246398 0.4615286 0.5117504
vn -0.7249267 -0.4573996 -0.5150408
vn 0.6888615 -0.4954897 -0.5291123
vn 0 0 -1
vn 0.8600666 0.4014085 -0.3148914
vn 0.8919952 -0.3243235 -0.314895
vn 0.4014065 -0.8600703 -0.3148841
vn -0.3243312 -0.8919973 -0.3148811
vn -0.8600713 -0.4014041 -0.3148845
vn -0.8920009 0.3243175 -0.3148851
vn -0.4014073 0.8600704 -0.3148828
vn 0.3243236 0.8919994 -0.3148827
vn -0.6342003 0.312714 0.7071067
vn 0.6342049 0.3127046 0.7071067
vn -0.4550661 0.7317655 0.5073796
vn 0.455071 0.7317613 0.5073814
vn -0.4550661 0.7317655 -0.5073796
vn 0.455071 0.7317613 -0.5073814
vn -0.6342003 0.312714 -0.7071067
vn 0.6342049 0.3127046 -0.7071067
vn 0.2458548 0.676171 -0.6945129
vn 0.6519654 0.3042805 -0.6945173
vn 0.6761708 -0.2458475 -0.6945156
vn 0.3042833 -0.6519629 -0.6945185
vn -0.2458614 -0.6761654 -0.6945161
vn -0.65197 -0.3042789 -0.6945138
vn -0.6761732 0.2458394 -0.6945162
vn -0.3042803 0.6519634 -0.6945194
vn 0.6812345 0.2730445 -0.6792396
vn 0.6747717 -0.2886397 -0.6792424
vn 0.2730328 -0.6812413 -0.6792374
vn -0.2886394 -0.6747762 -0.6792381
vn -0.6812364 -0.2730454 -0.6792371
vn -0.6747767 0.2886358 -0.6792392
vn -0.2730381 0.6812385 -0.679238
vn 0.2886387 0.6747749 -0.6792397
vn 0 -0.7071068 -0.7071068
vn 0 -0.7071068 0.7071068
vn 0 0.7071068 0.7071068
vn 0 0.7071068 -0.7071068
vn -0.5773503 -0.5773503 -0.5773502
vn -0.5773503 0.5773503 0.5773502
vn -0.5773503 -0.5773503 0.5773502
vn -0.5773503 0.5773503 -0.5773502
vn -0.5980645 0.5507203 0.5822593
vn 0.5570619 0.6003145 0.5738506
vn -0.6009545 0.55036 -0.5796185
vn -0.7027624 -0.03791314 0.7104136
vn -0.5980645 0.5507203 0.5822593
vn -0.7073016 -0.4936321 -0.5060155
vn -0.7073016 -0.4936321 -0.5060155
vn -0.5513769 0.6064799 0.5728574
vn 0.6030877 0.5441979 0.58321
vn -0.5457845 0.6097174 -0.574773
vn -0.7101954 0.04167484 0.7027701
vn -0.7055607 0.04414821 -0.7072728
vn -0.5513769 0.6064799 0.5728574
vn -0.7249267 -0.4573996 -0.5150408
vn -0.7249267 -0.4573996 -0.5150408
vn 0.7097793 0.03262503 0.7036682
vn 0.5524715 0.603228 -0.5752316
vn 0.7060788 0.03522791 -0.7072565
vn 0.5570619 0.6003145 0.5738506
vn -0.7069765 0.487786 0.5121025
vn -0.7069765 0.487786 0.5121025
vn 0.7071431 0.4954312 0.5044764
vn 0.7069234 -0.4861083 -0.5137684
vn 0.7069234 -0.4861083 -0.5137684
vn 0.7071431 0.4954312 0.5044764
vn 0.7013549 -0.04673649 0.7112785
vn 0.6069194 0.5432369 -0.5801228
vn 0.7057607 -0.04421664 -0.7070691
vn 0.6030877 0.5441979 0.58321
vn -0.6888452 0.4992629 0.5255749
vn -0.6888452 0.4992629 0.5255749
vn 0.7246398 0.4615286 0.5117504
vn 0.6888615 -0.4954897 -0.5291123
vn 0.6888615 -0.4954897 -0.5291123
vn 0.7246398 0.4615286 0.5117504
vn -0.4550661 0.7317655 0.5073796
vn 0.455071 0.7317613 0.5073814
vn -0.4550661 0.7317655 -0.5073796
vn 0.455071 0.7317613 -0.5073814
vn 0.5773503 -0.5773503 0.5773503
vn 0.5773503 -0.5773503 -0.5773503
vn 0.5773503 0.5773503 0.5773503
vn 0.5773503 0.5773503 -0.5773503
g blocker_standard_0
f 15/15/15 11/11/11 17/17/17
f 13/13/13 11/11/11 15/15/15
f 88/88/88 87/87/87 89/89/89
f 90/90/90 87/87/87 88/88/88
f 21/21/21 18/18/18 19/19/19
f 20/20/20 18/18/18 21/21/21
f 22/22/22 39/39/39 38/38/38
f 23/23/23 39/39/39 22/22/22
f 91/91/91 23/23/23 22/22/22
f 92/92/92 23/23/23 91/91/91
f 94/94/94 93/93/93 38/38/38
f 95/95/95 93/93/93 94/94/94
f 43/43/43 26/26/26 27/27/27
f 42/42/42 26/26/26 43/43/43
f 40/40/40 96/96/96 97/97/97
f 24/24/24 96/96/96 40/40/40
f 31/31/31 28/28/28 29/29/29
f 30/30/30 28/28/28 31/31/31
f 32/32/32 45/45/45 44/44/44
f 33/33/33 45/45/45 32/32/32
f 98/98/98 33/33/33 32/32/32
f 99/99/99 33/33/33 98/98/98
f 101/101/101 100/100/100 102/102/102
f 103/103/103 100/100/100 101/101/101
f 49/49/49 36/36/36 37/37/37
f 48/48/48 36/36/36 49/49/49
f 46/46/46 104/104/104 105/105/105
f 34/34/34 104/104/104 46/46/46
f 107/107/107 106/106/106 108/108/108
f 109/109/109 106/106/106 107/107/107
f 25/25/25 110/110/110 41/41/41
f 111/111/111 110/110/110 25/25/25
f 113/113/113 112/112/112 114/114/114
f 115/115/115 112/112/112 113/113/113
f 117/117/117 116/116/116 118/118/118
f 119/119/119 116/116/116 117/117/117
f 35/35/35 120/120/120 47/47/47
f 121/121/121 120/120/120 35/35/35
f 123/123/123 122/122/122 124/124/124
f 125/125/125 122/122/122 123/123/123
f 64/64/64 126/126/126 127/127/127
f 63/63/63 126/126/126 64/64/64
f 86/86/86 12/12/12 85/85/85
f 14/14/14 12/12/12 86/86/86
f 83/83/83 14/14/14 86/86/86
f 16/16/16 14/14/14 83/83/83
f 84/84/84 16/16/16 83/83/83
f 10/10/10 16/16/16 84/84/84
f 85/85/85 10/10/10 84/84/84
f 12/12/12 10/10/10 85/85/85
f 61/61/61 59/59/59 62/62/62
f 65/65/65 59/59/59 61/61/61
f 128/128/128 65/65/65 61/61/61
f 66/66/66 65/65/65 128/128/128
f 129/129/129 66/66/66 128/128/128
f 60/60/60 66/66/66 129/129/129
f 62/62/62 60/60/60 129/129/129
f 59/59/59 60/60/60 62/62/62
f 74/74/74 58/58/58 67/67/67
f 57/57/57 58/58/58 74/74/74
f 73/73/73 57/57/57 74/74/74
f 56/56/56 57/57/57 73/73/73
f 72/72/72 56/56/56 73/73/73
f 55/55/55 56/56/56 72/72/72
f 71/71/71 55/55/55 72/72/72
f 54/54/54 55/55/55 71/71/71
f 70/70/70 54/54/54 71/71/71
f 53/53/53 54/54/54 70/70/70
f 69/69/69 53/53/53 70/70/70
f 52/52/52 53/53/53 69/69/69
f 68/68/68 52/52/52 69/69/69
f 51/51/51 52/52/52 68/68/68
f 67/67/67 51/51/51 68/68/68
f 58/58/58 51/51/51 67/67/67
f 82/82/82 9/9/9 75/75/75
f 8/8/8 9/9/9 82/82/82
f 81/81/81 8/8/8 82/82/82
f 7/7/7 8/8/8 81/81/81
f 80/80/80 7/7/7 81/81/81
f 6/6/6 7/7/7 80/80/80
f 79/79/79 6/6/6 80/80/80
f 5/5/5 6/6/6 79/79/79
f 78/78/78 5/5/5 79/79/79
f 4/4/4 5/5/5 78/78/78
f 77/77/77 4/4/4 78/78/78
f 3/3/3 4/4/4 77/77/77
f 76/76/76 3/3/3 77/77/77
f 2/2/2 3/3/3 76/76/76
f 75/75/75 2/2/2 76/76/76
f 9/9/9 2/2/2 75/75/75
f 130/130/130 84/84/84 83/83/83
f 85/85/85 84/84/84 130/130/130
f 132/132/132 85/85/85 130/130/130
f 86/86/86 85/85/85 132/132/132
f 133/133/133 86/86/86 132/132/132
f 83/83/83 86/86/86 133/133/133
f 131/131/131 83/83/83 133/133/133
f 130/130/130 83/83/83 131/131/131
f 1/1/1 75/75/75 76/76/76
f 82/82/82 75/75/75 1/1/1
f 81/81/81 82/82/82 1/1/1
f 1/1/1 80/80/80 81/81/81
f 79/79/79 80/80/80 1/1/1
f 78/78/78 79/79/79 1/1/1
f 1/1/1 77/77/77 78/78/78
f 76/76/76 77/77/77 1/1/1
f 50/50/50 67/67/67 68/68/68
f 74/74/74 67/67/67 50/50/50
f 73/73/73 74/74/74 50/50/50
f 50/50/50 72/72/72 73/73/73
f 71/71/71 72/72/72 50/50/50
f 70/70/70 71/71/71 50/50/50
f 50/50/50 69/69/69 70/70/70
f 68/68/68 69/69/69 50/50/50
