g blocker_jump
v -6.303288 9.449739 -7.813843
v -4.362789 8.619684 -5.701447
v -5.518091 7.490675 -5.701447
v -7.133342 7.50926 -5.701447
v -8.262352 8.66455 -5.701447
v -8.243786 10.2798 -5.701447
v -7.088482 11.40881 -5.701447
v -5.473232 11.39023 -5.701447
v -4.344221 10.23494 -5.701447
v -9.411591 7.594913 -3.414963
v 9.413431 7.594913 -3.414963
v -9.411591 11.69446 -3.414963
v 9.413431 11.69446 -3.414963
v -9.411591 11.69446 -5.117523
v 9.413431 11.69446 -5.117523
v -9.411591 7.594913 -5.117523
v 9.413431 7.594913 -5.117523
v 5.589071 1.396962 -2.355896
v 7.877917 1.440359 -2.398666
v 4.907988 12.53912 -2.323196
v 7.195168 12.62591 -2.323196
v 4.907948 12.53912 -3.448883
v 7.195127 12.62591 -3.448883
v 5.477133 9.381698 -2.443695
v 7.07727 9.443093 -2.443695
v 5.539628 7.752921 -2.405685
v 7.13858 7.845191 -2.436569
v -7.903923 1.448155 -2.406403
v -5.615078 1.39318 -2.352158
v -7.009182 13.24819 -2.323196
v -4.722994 13.13824 -2.323196
v -7.009182 13.24819 -3.448883
v -4.722994 13.13824 -3.448883
v -6.939014 9.866567 -2.443695
v -5.33879 9.807482 -2.443695
v -6.999156 8.237702 -2.405685
v -5.397792 8.209492 -2.436569
v 5.589766 1.377216 -3.448883
v 7.880238 1.377215 -3.448883
v 5.612499 1.377215 7.0269
v 7.213814 1.377215 7.0269
v 5.612499 1.377215 5.434937
v 7.213814 1.377215 5.434937
v -7.907335 1.377216 -3.448883
v -5.615831 1.377215 -3.448883
v -7.139545 1.377215 7.0269
v -5.538231 1.377215 7.0269
v -7.139545 1.377215 5.434937
v -5.538231 1.377215 5.434937
v 5.898941 9.449745 -7.722076
v 7.811451 10.34235 -5.609695
v 7.882484 8.728558 -5.609695
v 6.791552 7.537224 -5.609695
v 5.177744 7.466222 -5.609695
v 3.986446 8.557137 -5.609695
v 3.915398 10.17093 -5.609695
v 5.006348 11.36226 -5.609695
v 6.620153 11.43327 -5.609695
v -9.292315 -0.1424468 7.792557
v 9.292315 -0.1424468 7.792557
v -8.4695 1.526266 7.792557
v 8.46954 1.526266 7.792557
v -8.4695 1.526266 -6.505493
v 8.46954 1.526266 -6.505493
v -9.292315 -0.1424468 -6.505493
v 9.292315 -0.1424468 -6.505493
v 6.455105 10.97935 -7.06552
v 7.373835 10.13809 -7.06552
v 7.428528 8.893583 -7.06552
v 6.587299 7.974884 -7.065536
v 5.342752 7.920124 -7.06552
v 4.424103 8.761417 -7.06552
v 4.369329 10.00589 -7.06552
v 5.210598 10.92461 -7.065536
v -4.75194 10.07152 -7.084106
v -4.766624 8.792437 -7.084106
v -5.681524 7.898401 -7.084106
v -6.960567 7.913116 -7.084106
v -7.85462 8.827967 -7.084106
v -7.839935 10.10705 -7.084106
v -6.925051 11.00109 -7.084106
v -5.646008 10.98638 -7.084106
v 7.936272 1.509604 -4.547819
v -8.145177 1.509598 -4.547819
v 7.93436 7.956278 -4.547819
v -8.135805 7.956272 -4.547819
v 7.93438 7.880163 -3.511337
v -8.135695 7.880157 -3.511337
v 7.936291 1.433489 -3.511337
v -8.145068 1.433484 -3.511337
v 0 11.69446 -5.117523
v 0 7.594913 -5.117523
v 0 7.594913 -3.414963
v 0 11.69446 -3.414963
v -0.08169174 1.961138 -4.547819
v -0.07797742 7.956275 -4.547819
v -0.02269316 1.885023 -3.511337
v -0.01902008 7.88016 -3.511337
v -9.411591 11.69446 -5.117523
v 0 11.69446 -5.117523
v -9.411591 7.594913 -5.117523
v 0 7.594913 -3.414963
v 0 7.594913 -5.117523
v -9.411591 7.594913 -3.414963
v -9.411591 7.594913 -5.117523
v -9.411591 11.69446 -3.414963
v -9.411591 7.594913 -3.414963
v -9.411591 11.69446 -5.117523
v 4.907988 12.53912 -2.323196
v 7.195168 12.62591 -2.323196
v 4.907948 12.53912 -3.448883
v 5.589071 1.396962 -2.355896
v 4.907988 12.53912 -2.323196
v 5.539628 7.752921 -2.405685
v 5.612499 1.377215 5.434937
v -7.009182 13.24819 -2.323196
v -4.722994 13.13824 -2.323196
v -7.009182 13.24819 -3.448883
v -7.903923 1.448155 -2.406403
v -7.907335 1.377216 -3.448883
v -7.009182 13.24819 -2.323196
v -6.999156 8.237702 -2.405685
v -7.139545 1.377215 5.434937
v 7.877917 1.440359 -2.398666
v 7.195127 12.62591 -3.448883
v 7.880238 1.377215 -3.448883
v 7.195168 12.62591 -2.323196
v 5.612499 1.377215 7.0269
v 5.477133 9.381698 -2.443695
v 7.213814 1.377215 7.0269
v 7.13858 7.845191 -2.436569
v 7.213814 1.377215 5.434937
v 7.07727 9.443093 -2.443695
v -5.615078 1.39318 -2.352158
v -4.722994 13.13824 -3.448883
v -5.615831 1.377215 -3.448883
v -4.722994 13.13824 -2.323196
v -7.139545 1.377215 7.0269
v -6.939014 9.866567 -2.443695
v -5.538231 1.377215 7.0269
v -5.397792 8.209492 -2.436569
v -5.538231 1.377215 5.434937
v -5.33879 9.807482 -2.443695
v -8.4695 1.526266 7.792557
v 8.46954 1.526266 7.792557
v -8.4695 1.526266 -6.505493
v 8.46954 1.526266 -6.505493
v -8.135695 7.880157 -3.511337
v -8.145068 1.433484 -3.511337
v 7.93436 7.956278 -4.547819
v 7.936272 1.509604 -4.547819
v 9.413431 7.594913 -5.117523
v 9.413431 11.69446 -5.117523
v 9.413431 7.594913 -5.117523
v 9.413431 7.594913 -3.414963
v 9.413431 7.594913 -3.414963
v 9.413431 11.69446 -3.414963
v 9.413431 11.69446 -5.117523
v -8.135805 7.956272 -4.547819
v -8.145177 1.509598 -4.547819
v 7.93438 7.880163 -3.511337
v 7.936291 1.433489 -3.511337
vt 0.7850419 0.290346
vt 0.8175931 0.2735628
vt 0.7987579 0.2541502
vt 0.7987579 0.2541502
vt 0.8175931 0.2735628
vt 0.8175931 0.3069204
vt 0.7987579 0.3262661
vt 0.7987579 0.3262661
vt 0.8175931 0.3069204
vt 0.9996625 0.2481391
vt 0.9137067 0.146829
vt 0.9996625 0.2851253
vt 0.9422864 0.146829
vt 0.9996625 0.3118415
vt 0.9422864 0.1303125
vt 0.9996625 0.2481391
vt 0.9137067 0.1303125
vt 0.9610957 0.001672372
vt 0.9458085 0.001664028
vt 0.9609858 0.1273558
vt 0.9456986 0.1273474
vt 0.9612974 0.1283319
vt 0.9441558 0.1283319
vt 0.9623142 0.001905434
vt 0.9284098 0.07809752
vt 0.9264677 0.05771016
vt 0.9153632 0.05792445
vt 0.9458085 0.001664028
vt 0.9610957 0.001672372
vt 0.9456986 0.1273474
vt 0.9609857 0.1273558
vt 0.9441556 0.1283319
vt 0.9612939 0.1283319
vt 0.9623142 0.001905434
vt 0.9438213 0.07809747
vt 0.9265265 0.05716177
vt 0.915422 0.05737607
vt 0.9620254 0.002100911
vt 0.9448813 0.001421039
vt 0.9623142 0.1497922
vt 0.9284098 0.1275512
vt 0.9264677 0.002276473
vt 0.9153632 0.00227648
vt 0.9448813 0.001421039
vt 0.9620254 0.002100911
vt 0.9623142 0.1497922
vt 0.9438213 0.1275511
vt 0.9265265 0.002276487
vt 0.915422 0.00227648
vt 0.7850419 0.290346
vt 0.8175931 0.3069204
vt 0.8175931 0.2735628
vt 0.7987579 0.2541502
vt 0.7987579 0.2541502
vt 0.8175931 0.2735628
vt 0.8175931 0.3069204
vt 0.7987579 0.3262661
vt 0.7987579 0.3262661
vt 0.9973208 0.001892115
vt 0.9973208 0.1511834
vt 0.9753016 0.001892115
vt 0.9762589 0.1511834
vt 0.9021751 0.4437689
vt 0.9021751 0.3555974
vt 0.9973208 0.1511834
vt 0.9973208 0.001892115
vt 0.7926587 0.3109073
vt 0.8060311 0.3004106
vt 0.8053409 0.2802454
vt 0.7930613 0.2696005
vt 0.7930613 0.2696005
vt 0.8053409 0.2802454
vt 0.8060311 0.3004106
vt 0.7926587 0.3109073
vt 0.8060311 0.3004106
vt 0.8053409 0.2802454
vt 0.7930613 0.2696005
vt 0.7930613 0.2696005
vt 0.8053409 0.2802454
vt 0.8060311 0.3004106
vt 0.7926587 0.3109073
vt 0.7926587 0.3109073
vt 0.9994088 0.3164165
vt 0.9259267 0.05951938
vt 0.9994088 0.4455953
vt 0.9259267 0.1280498
vt 0.9151285 0.1280498
vt 0.9994088 0.4455953
vt 0.9151285 0.05951938
vt 0.9994088 0.3164165
vt 0.909977 0.3118415
vt 0.909977 0.2481391
vt 0.909977 0.2481391
vt 0.909977 0.2851253
vt 0.9124416 0.3164166
vt 0.9124416 0.4455953
vt 0.9124416 0.3164165
vt 0.9124416 0.4455953
vt 0.9996625 0.2851253
vt 0.909977 0.2851253
vt 0.9996625 0.3118415
vt 0.909977 0.2851253
vt 0.909977 0.3118415
vt 0.9996625 0.2851253
vt 0.9137582 0.1469037
vt 0.9422864 0.1303125
vt 0.9137582 0.1303125
vt 0.9422864 0.1469037
vt 0.9612331 0.1364131
vt 0.944097 0.1364131
vt 0.9623142 0.1497923
vt 0.9730454 0.001905434
vt 0.9730454 0.1497922
vt 0.9730454 0.001905434
vt 0.9730454 0.1497922
vt 0.944097 0.1364131
vt 0.9612263 0.1364131
vt 0.9623142 0.1497923
vt 0.9730454 0.001905434
vt 0.9623142 0.001905434
vt 0.9730454 0.1497922
vt 0.9730454 0.001905434
vt 0.9730454 0.1497922
vt 0.9623142 0.001905434
vt 0.9730454 0.1497922
vt 0.9730454 0.001905434
vt 0.9623142 0.1497922
vt 0.9438213 0.1275511
vt 0.9438213 0.07809747
vt 0.9623142 0.001905434
vt 0.9730454 0.1497922
vt 0.9730454 0.001905434
vt 0.9623142 0.1497922
vt 0.9623142 0.001905434
vt 0.9730454 0.1497922
vt 0.9730454 0.001905434
vt 0.9623142 0.1497922
vt 0.9284098 0.1275512
vt 0.9284098 0.07809752
vt 0.9623142 0.001905434
vt 0.9730454 0.1497922
vt 0.9730454 0.001905434
vt 0.9623142 0.1497922
vt 0.8288629 0.4437689
vt 0.8288629 0.3555974
vt 0.9762589 0.1511834
vt 0.9753016 0.001892115
vt 0.9147102 0.1280498
vt 0.9147102 0.05951938
vt 0.9263449 0.1280498
vt 0.9263449 0.05951938
vt 0.9996625 0.2481391
vt 0.9996625 0.2851253
vt 0.9996625 0.3118415
vt 0.9996625 0.2851253
vt 0.9996625 0.2481391
vt 0.9996625 0.2851253
vt 0.9996625 0.3118415
vt 0.9994088 0.4455953
vt 0.9994088 0.3164165
vt 0.9994088 0.4455953
vt 0.9994088 0.3164165
vn 0 0 -1
vn 0.8762615 -0.3748262 -0.3027725
vn 0.3545604 -0.8846551 -0.3027746
vn -0.3748243 -0.8762599 -0.3027794
vn -0.8846474 -0.3545753 -0.3027792
vn -0.8762605 0.3748234 -0.3027787
vn -0.3545627 0.8846537 -0.3027758
vn 0.3748236 0.8762609 -0.3027774
vn 0.8846494 0.3545761 -0.3027726
vn -0.5773503 -0.5773503 0.5773503
vn 0.5773503 -0.5773503 0.5773503
vn -0.5773503 0.5773503 0.5773503
vn 0.5773503 0.5773503 0.5773503
vn -0.5773503 0.5773503 -0.5773503
vn 0.5773503 0.5773503 -0.5773503
vn -0.5773503 -0.5773503 -0.5773503
vn 0.5773503 -0.5773503 -0.5773503
vn -0.7022422 -0.0463522 0.7104276
vn 0.7094919 0.03985046 0.7035859
vn -0.6000809 0.5459715 0.5846522
vn 0.5549144 0.6042329 0.5718151
vn -0.602879 0.5459873 -0.5817515
vn 0.5500607 0.6072971 -0.5732569
vn -0.7221044 0.5230081 0.4527998
vn 0.6918262 0.5548272 0.4621075
vn -0.6910856 -0.5635397 -0.4525746
vn 0.7226135 -0.5310612 -0.4424972
vn -0.7097573 0.05041166 0.7026402
vn 0.7006225 -0.05658975 0.7112846
vn -0.5487289 0.6112008 0.5703773
vn 0.6053683 0.5386332 0.5860063
vn -0.5428442 0.6144915 -0.5724686
vn 0.6091257 0.5380023 -0.582683
vn -0.6923988 0.5448772 0.4729616
vn 0.7212973 0.5093157 0.4693907
vn -0.7211567 -0.5153512 -0.4629754
vn 0.692686 -0.5503243 -0.4661856
vn -0.7058781 -0.04313331 -0.707019
vn 0.7055418 0.04301996 -0.7073613
vn -0.7221044 0.5230081 0.4527998
vn 0.6918262 0.5548272 0.4621075
vn -0.6910856 -0.5635397 -0.4525746
vn 0.7226135 -0.5310612 -0.4424972
vn -0.704769 0.05338296 -0.7074256
vn 0.7051496 -0.05354531 -0.707034
vn -0.6923988 0.5448772 0.4729616
vn 0.7212973 0.5093157 0.4693907
vn -0.7211567 -0.5153512 -0.4629754
vn 0.692686 -0.5503243 -0.4661856
vn 0 0 -1
vn 0.8600726 0.4014049 -0.3148795
vn 0.8919994 -0.3243233 -0.314883
vn 0.4014114 -0.8600686 -0.3148823
vn -0.3243348 -0.8919968 -0.3148787
vn -0.8600711 -0.4014086 -0.3148792
vn -0.892002 0.324313 -0.3148864
vn -0.4014055 0.8600714 -0.3148824
vn 0.3243252 0.8920005 -0.3148783
vn -0.6342002 0.312714 0.7071068
vn 0.6342062 0.3127017 0.7071068
vn -0.4550661 0.7317654 0.5073797
vn 0.4550724 0.73176 0.507382
vn -0.4550661 0.7317654 -0.5073797
vn 0.4550724 0.73176 -0.507382
vn -0.6342002 0.312714 -0.7071068
vn 0.6342062 0.3127017 -0.7071068
vn 0.2458562 0.6761808 -0.6945028
vn 0.6519769 0.3042818 -0.694506
vn 0.6761822 -0.2458531 -0.6945026
vn 0.3042902 -0.6519707 -0.6945082
vn -0.2458661 -0.6761746 -0.6945053
vn -0.6519812 -0.3042863 -0.6945001
vn -0.6761827 0.2458411 -0.6945065
vn -0.3042847 0.651974 -0.6945075
vn 0.6812475 0.2730531 -0.6792229
vn 0.6747857 -0.2886449 -0.6792262
vn 0.2730378 -0.6812542 -0.6792224
vn -0.2886437 -0.6747885 -0.6792241
vn -0.6812469 -0.2730524 -0.6792238
vn -0.6747859 0.2886418 -0.6792274
vn -0.27304 0.6812519 -0.6792238
vn 0.2886426 0.6747887 -0.6792243
vn 0.7071078 0.0002097171 -0.7071057
vn -0.707181 0.001028205 -0.7070318
vn 0.7071078 0.0002097171 -0.7071057
vn -0.707181 0.001028205 -0.7070318
vn 0.7071057 0.0002097165 0.7071077
vn -0.7070311 0.001027987 0.7071818
vn 0.7071057 0.0002097165 0.7071077
vn -0.7070311 0.001027987 0.7071818
vn 0 0.7071068 -0.7071068
vn 0 -0.7071068 -0.7071068
vn 0 -0.7071068 0.7071068
vn 0 0.7071068 0.7071068
vn 0 0 -1
vn 0 0 -1
vn 0 0 1
vn 0 0 1
vn -0.5773503 0.5773503 -0.5773503
vn 0 0.7071068 -0.7071068
vn -0.5773503 -0.5773503 -0.5773503
vn 0 -0.7071068 0.7071068
vn 0 -0.7071068 -0.7071068
vn -0.5773503 -0.5773503 0.5773503
vn -0.5773503 -0.5773503 -0.5773503
vn -0.5773503 0.5773503 0.5773503
vn -0.5773503 -0.5773503 0.5773503
vn -0.5773503 0.5773503 -0.5773503
vn -0.6000809 0.5459715 0.5846522
vn 0.5549144 0.6042329 0.5718151
vn -0.602879 0.5459873 -0.5817515
vn -0.7022422 -0.0463522 0.7104276
vn -0.6000809 0.5459715 0.5846522
vn -0.6910856 -0.5635397 -0.4525746
vn -0.6910856 -0.5635397 -0.4525746
vn -0.5487289 0.6112008 0.5703773
vn 0.6053683 0.5386332 0.5860063
vn -0.5428442 0.6144915 -0.5724686
vn -0.7097573 0.05041166 0.7026402
vn -0.704769 0.05338296 -0.7074256
vn -0.5487289 0.6112008 0.5703773
vn -0.7211567 -0.5153512 -0.4629754
vn -0.7211567 -0.5153512 -0.4629754
vn 0.7094919 0.03985046 0.7035859
vn 0.5500607 0.6072971 -0.5732569
vn 0.7055418 0.04301996 -0.7073613
vn 0.5549144 0.6042329 0.5718151
vn -0.7221044 0.5230081 0.4527998
vn -0.7221044 0.5230081 0.4527998
vn 0.6918262 0.5548272 0.4621075
vn 0.7226135 -0.5310612 -0.4424972
vn 0.7226135 -0.5310612 -0.4424972
vn 0.6918262 0.5548272 0.4621075
vn 0.7006225 -0.05658975 0.7112846
vn 0.6091257 0.5380023 -0.582683
vn 0.7051496 -0.05354531 -0.707034
vn 0.6053683 0.5386332 0.5860063
vn -0.6923988 0.5448772 0.4729616
vn -0.6923988 0.5448772 0.4729616
vn 0.7212973 0.5093157 0.4693907
vn 0.692686 -0.5503243 -0.4661856
vn 0.692686 -0.5503243 -0.4661856
vn 0.7212973 0.5093157 0.4693907
vn -0.4550661 0.7317654 0.5073797
vn 0.4550724 0.73176 0.507382
vn -0.4550661 0.7317654 -0.5073797
vn 0.4550724 0.73176 -0.507382
vn -0.7070311 0.001027987 0.7071818
vn -0.7070311 0.001027987 0.7071818
vn 0.7071078 0.0002097171 -0.7071057
vn 0.7071078 0.0002097171 -0.7071057
vn 0.5773503 -0.5773503 -0.5773503
vn 0.5773503 0.5773503 -0.5773503
vn 0.5773503 -0.5773503 -0.5773503
vn 0.5773503 -0.5773503 0.5773503
vn 0.5773503 -0.5773503 0.5773503
vn 0.5773503 0.5773503 0.5773503
vn 0.5773503 0.5773503 -0.5773503
vn -0.707181 0.001028205 -0.7070318
vn -0.707181 0.001028205 -0.7070318
vn 0.7071057 0.0002097165 0.7071077
vn 0.7071057 0.0002097165 0.7071077
g blocker_jump_0
f 94/94/94 156/156/156 157/157/157
f 91/91/91 94/94/94 157/157/157
f 12/12/12 94/94/94 91/91/91
f 14/14/14 12/12/12 91/91/91
f 100/100/100 153/153/153 152/152/152
f 92/92/92 100/100/100 152/152/152
f 99/99/99 100/100/100 92/92/92
f 16/16/16 99/99/99 92/92/92
f 102/102/102 103/103/103 154/154/154
f 101/101/101 103/103/103 102/102/102
f 104/104/104 101/101/101 102/102/102
f 15/15/15 11/11/11 17/17/17
f 13/13/13 11/11/11 15/15/15
f 106/106/106 105/105/105 107/107/107
f 108/108/108 105/105/105 106/106/106
f 21/21/21 18/18/18 19/19/19
f 20/20/20 18/18/18 21/21/21
f 22/22/22 39/39/39 38/38/38
f 23/23/23 39/39/39 22/22/22
f 109/109/109 23/23/23 22/22/22
f 110/110/110 23/23/23 109/109/109
f 112/112/112 111/111/111 38/38/38
f 113/113/113 111/111/111 112/112/112
f 43/43/43 26/26/26 27/27/27
f 42/42/42 26/26/26 43/43/43
f 40/40/40 114/114/114 115/115/115
f 24/24/24 114/114/114 40/40/40
f 31/31/31 28/28/28 29/29/29
f 30/30/30 28/28/28 31/31/31
f 32/32/32 45/45/45 44/44/44
f 33/33/33 45/45/45 32/32/32
f 116/116/116 33/33/33 32/32/32
f 117/117/117 33/33/33 116/116/116
f 119/119/119 118/118/118 120/120/120
f 121/121/121 118/118/118 119/119/119
f 49/49/49 36/36/36 37/37/37
f 48/48/48 36/36/36 49/49/49
f 46/46/46 122/122/122 123/123/123
f 34/34/34 122/122/122 46/46/46
f 125/125/125 124/124/124 126/126/126
f 127/127/127 124/124/124 125/125/125
f 25/25/25 128/128/128 41/41/41
f 129/129/129 128/128/128 25/25/25
f 131/131/131 130/130/130 132/132/132
f 133/133/133 130/130/130 131/131/131
f 135/135/135 134/134/134 136/136/136
f 137/137/137 134/134/134 135/135/135
f 35/35/35 138/138/138 47/47/47
f 139/139/139 138/138/138 35/35/35
f 141/141/141 140/140/140 142/142/142
f 143/143/143 140/140/140 141/141/141
f 64/64/64 144/144/144 145/145/145
f 63/63/63 144/144/144 64/64/64
f 95/95/95 160/160/160 159/159/159
f 96/96/96 95/95/95 159/159/159
f 83/83/83 95/95/95 96/96/96
f 85/85/85 83/83/83 96/96/96
f 97/97/97 162/162/162 161/161/161
f 98/98/98 97/97/97 161/161/161
f 90/90/90 97/97/97 98/98/98
f 88/88/88 90/90/90 98/98/98
f 148/148/148 84/84/84 149/149/149
f 86/86/86 84/84/84 148/148/148
f 150/150/150 89/89/89 151/151/151
f 87/87/87 89/89/89 150/150/150
f 155/155/155 102/102/102 154/154/154
f 158/158/158 91/91/91 157/157/157
f 94/94/94 93/93/93 156/156/156
f 10/10/10 93/93/93 94/94/94
f 12/12/12 10/10/10 94/94/94
f 61/61/61 59/59/59 62/62/62
f 65/65/65 59/59/59 61/61/61
f 146/146/146 65/65/65 61/61/61
f 66/66/66 65/65/65 146/146/146
f 147/147/147 66/66/66 146/146/146
f 60/60/60 66/66/66 147/147/147
f 62/62/62 60/60/60 147/147/147
f 59/59/59 60/60/60 62/62/62
f 74/74/74 58/58/58 67/67/67
f 57/57/57 58/58/58 74/74/74
f 73/73/73 57/57/57 74/74/74
f 56/56/56 57/57/57 73/73/73
f 72/72/72 56/56/56 73/73/73
f 55/55/55 56/56/56 72/72/72
f 71/71/71 55/55/55 72/72/72
f 54/54/54 55/55/55 71/71/71
f 70/70/70 54/54/54 71/71/71
f 53/53/53 54/54/54 70/70/70
f 69/69/69 53/53/53 70/70/70
f 52/52/52 53/53/53 69/69/69
f 68/68/68 52/52/52 69/69/69
f 51/51/51 52/52/52 68/68/68
f 67/67/67 51/51/51 68/68/68
f 58/58/58 51/51/51 67/67/67
f 82/82/82 9/9/9 75/75/75
f 8/8/8 9/9/9 82/82/82
f 81/81/81 8/8/8 82/82/82
f 7/7/7 8/8/8 81/81/81
f 80/80/80 7/7/7 81/81/81
f 6/6/6 7/7/7 80/80/80
f 79/79/79 6/6/6 80/80/80
f 5/5/5 6/6/6 79/79/79
f 78/78/78 5/5/5 79/79/79
f 4/4/4 5/5/5 78/78/78
f 77/77/77 4/4/4 78/78/78
f 3/3/3 4/4/4 77/77/77
f 76/76/76 3/3/3 77/77/77
f 2/2/2 3/3/3 76/76/76
f 75/75/75 2/2/2 76/76/76
f 9/9/9 2/2/2 75/75/75
f 1/1/1 75/75/75 76/76/76
f 82/82/82 75/75/75 1/1/1
f 81/81/81 82/82/82 1/1/1
f 1/1/1 80/80/80 81/81/81
f 79/79/79 80/80/80 1/1/1
f 78/78/78 79/79/79 1/1/1
f 1/1/1 77/77/77 78/78/78
f 76/76/76 77/77/77 1/1/1
f 50/50/50 67/67/67 68/68/68
f 74/74/74 67/67/67 50/50/50
f 73/73/73 74/74/74 50/50/50
f 50/50/50 72/72/72 73/73/73
f 71/71/71 72/72/72 50/50/50
f 70/70/70 71/71/71 50/50/50
f 50/50/50 69/69/69 70/70/70
f 68/68/68 69/69/69 50/50/50
