# Blender v2.76 (sub 0) OBJ File: ''
# www.blender.org
mtllib Coin.mtl
o 1
v 0.066795 0.200950 -0.018492
v 0.048528 0.219233 -0.018478
v 0.048586 0.219234 0.018398
v 0.066852 0.200951 0.018383
v 0.025553 0.230956 0.018416
v 0.025496 0.230956 -0.018459
v 0.078596 0.177929 0.018374
v 0.078538 0.177928 -0.018502
v 0.082570 0.152399 -0.018505
v 0.082627 0.152401 0.018371
v 0.078596 0.126872 0.018375
v 0.078538 0.126871 -0.018501
v 0.066795 0.103849 -0.018491
v 0.066852 0.103850 0.018384
v 0.048586 0.085567 0.018399
v 0.048528 0.085566 -0.018476
v 0.025496 0.073844 -0.018457
v 0.025553 0.073844 0.018418
v 0.000029 0.069790 0.018439
v -0.000029 0.069789 -0.018437
v -0.025553 0.073844 -0.018416
v -0.025496 0.073844 0.018459
v -0.048528 0.085567 0.018478
v -0.048586 0.085566 -0.018398
v -0.066852 0.103849 -0.018383
v -0.066795 0.103850 0.018492
v -0.078538 0.126872 0.018502
v -0.078596 0.126871 -0.018374
v -0.082627 0.152399 -0.018371
v -0.082570 0.152401 0.018505
v -0.078538 0.177929 0.018501
v -0.078596 0.177928 -0.018375
v -0.066852 0.200950 -0.018384
v -0.066795 0.200951 0.018491
v -0.048528 0.219234 0.018476
v -0.048586 0.219233 -0.018399
v -0.025553 0.230956 -0.018418
v -0.025496 0.230956 0.018458
v 0.000029 0.235011 0.018437
v -0.000029 0.235010 -0.018439
v 0.066852 0.200951 0.018383
v 0.048586 0.219234 0.018398
v 0.000029 0.152401 0.018438
v 0.078596 0.177929 0.018374
v 0.082627 0.152401 0.018371
v 0.078596 0.126872 0.018375
v 0.066852 0.103850 0.018384
v 0.048586 0.085567 0.018399
v 0.025553 0.073844 0.018418
v 0.000029 0.069790 0.018439
v -0.025496 0.073844 0.018459
v 0.025553 0.230956 0.018416
v 0.000029 0.235011 0.018437
v -0.025496 0.230956 0.018458
v -0.048528 0.219234 0.018476
v -0.066795 0.200951 0.018491
v -0.078538 0.177929 0.018501
v -0.082570 0.152401 0.018505
v -0.078538 0.126872 0.018502
v -0.066795 0.103850 0.018492
v -0.048528 0.085567 0.018478
v -0.000029 0.152399 -0.018441
v 0.048528 0.219233 -0.018478
v 0.066795 0.200950 -0.018492
v 0.025496 0.230956 -0.018459
v 0.078538 0.177928 -0.018502
v 0.082570 0.152399 -0.018505
v 0.078538 0.126871 -0.018501
v 0.066795 0.103849 -0.018491
v 0.048528 0.085566 -0.018476
v 0.025496 0.073844 -0.018457
v -0.000029 0.069789 -0.018437
v -0.000029 0.235010 -0.018439
v -0.025553 0.230956 -0.018418
v -0.048586 0.219233 -0.018399
v -0.066852 0.200950 -0.018384
v -0.078596 0.177928 -0.018375
v -0.082627 0.152399 -0.018371
v -0.078596 0.126871 -0.018374
v -0.066852 0.103849 -0.018383
v -0.048586 0.085566 -0.018398
v -0.025553 0.073844 -0.018416
vt 0.995299 0.855941
vt 0.995292 0.837632
vt 0.957478 0.837632
vt 0.957485 0.855940
vt 0.957478 0.818346
vt 0.995292 0.818346
vt 0.957493 0.873877
vt 0.995306 0.873876
vt 0.995307 0.892928
vt 0.957493 0.892928
vt 0.957493 0.911034
vt 0.995307 0.911033
vt 0.995307 0.927630
vt 0.957493 0.927630
vt 0.957493 0.946108
vt 0.995307 0.946108
vt 0.995307 0.965062
vt 0.957493 0.965062
vt 0.957454 0.981593
vt 0.995268 0.981593
vt 0.995268 0.964867
vt 0.957454 0.964867
vt 0.957454 0.946180
vt 0.995268 0.946180
vt 0.957454 0.911146
vt 0.995268 0.911145
vt 0.995268 0.893366
vt 0.957454 0.893366
vt 0.957454 0.874571
vt 0.995268 0.874571
vt 0.995268 0.855776
vt 0.957454 0.855776
vt 0.957454 0.837335
vt 0.995268 0.837335
vt 0.995268 0.818618
vt 0.957454 0.818618
vt 0.957478 0.815622
vt 0.995292 0.815622
vt 0.498880 0.280543
vt 0.531803 0.247178
vt 0.624824 0.373063
vt 0.478085 0.322932
vt 0.471523 0.370235
vt 0.479799 0.417806
vt 0.502080 0.460523
vt 0.535568 0.494358
vt 0.577452 0.516280
vt 0.624824 0.524851
vt 0.573689 0.226163
vt 0.624824 0.218846
vn 0.809000 0.587800 -0.001300
vn 0.544200 0.839000 -0.000900
vn 0.629700 0.776800 -0.001000
vn 0.309100 0.951000 -0.000500
vn 0.309000 0.951100 -0.000500
vn 0.951100 0.309000 -0.001500
vn 0.951000 0.309000 -0.001500
vn 1.000000 -0.000000 -0.001600
vn 1.000000 0.000000 -0.001500
vn 0.951100 -0.309000 -0.001500
vn 0.951000 -0.309000 -0.001500
vn 0.809000 -0.587800 -0.001200
vn 0.587800 -0.809000 -0.000900
vn 0.587700 -0.809100 -0.000900
vn 0.309000 -0.951100 -0.000500
vn 0.309100 -0.951000 -0.000500
vn 0.000100 -1.000000 0.000000
vn -0.000100 -1.000000 0.000000
vn -0.309100 -0.951000 0.000500
vn -0.309000 -0.951100 0.000500
vn -0.587700 -0.809100 0.000900
vn -0.587800 -0.809000 0.000900
vn -0.809000 -0.587800 0.001300
vn -0.951000 -0.309000 0.001500
vn -0.951100 -0.309000 0.001500
vn -1.000000 -0.000000 0.001600
vn -1.000000 0.000000 0.001500
vn -0.951000 0.309000 0.001500
vn -0.951100 0.309000 0.001500
vn -0.809000 0.587700 0.001200
vn -0.809000 0.587800 0.001200
vn -0.587700 0.809100 0.000900
vn -0.587800 0.809000 0.000900
vn -0.309100 0.951000 0.000500
vn -0.309000 0.951100 0.000500
vn -0.052900 0.998600 0.000100
vn 0.052900 0.998600 -0.000100
vn 0.000800 0.000000 1.000000
vn -0.000800 -0.000000 -1.000000
vn -0.000800 -0.000100 -1.000000
usemtl props
s 1
f 1/1/1 2/2/2 3/3/3
f 1/1/1 3/3/3 4/4/1
f 5/5/4 3/3/3 2/2/2
f 5/5/4 2/2/2 6/6/5
f 1/1/1 4/4/1 7/7/6
f 1/1/1 7/7/6 8/8/7
f 9/9/8 8/8/7 7/7/6
f 9/9/8 7/7/6 10/10/9
f 9/9/8 10/10/9 11/11/10
f 9/9/8 11/11/10 12/12/11
f 13/13/12 12/12/11 11/11/10
f 13/13/12 11/11/10 14/14/12
f 13/13/12 14/14/12 15/15/13
f 13/13/12 15/15/13 16/16/14
f 17/17/15 16/16/14 15/15/13
f 17/17/15 15/15/13 18/18/16
f 17/17/15 18/18/16 19/19/17
f 17/17/15 19/19/17 20/20/18
f 21/21/19 20/20/18 19/19/17
f 21/21/19 19/19/17 22/22/20
f 21/21/19 22/22/20 23/23/21
f 21/21/19 23/23/21 24/24/22
f 25/13/23 24/24/22 23/23/21
f 25/13/23 23/23/21 26/14/23
f 25/13/23 26/14/23 27/25/24
f 25/13/23 27/25/24 28/26/25
f 29/27/26 28/26/25 27/25/24
f 29/27/26 27/25/24 30/28/27
f 29/27/26 30/28/27 31/29/28
f 29/27/26 31/29/28 32/30/29
f 33/31/30 32/30/29 31/29/28
f 33/31/30 31/29/28 34/32/31
f 33/31/30 34/32/31 35/33/32
f 33/31/30 35/33/32 36/34/33
f 37/35/34 36/34/33 35/33/32
f 37/35/34 35/33/32 38/36/35
f 37/35/34 38/36/35 39/37/36
f 37/35/34 39/37/36 40/38/37
f 5/5/4 40/38/37 39/37/36
f 5/5/4 6/6/5 40/38/37
f 41/39/38 42/40/38 43/41/38
f 41/39/38 43/41/38 44/42/38
f 45/43/38 44/42/38 43/41/38
f 45/43/38 43/41/38 46/44/38
f 47/45/38 46/44/38 43/41/38
f 47/45/38 43/41/38 48/46/38
f 49/47/38 48/46/38 43/41/38
f 49/47/38 43/41/38 50/48/38
f 51/47/38 50/48/38 43/41/38
f 43/41/38 42/40/38 52/49/38
f 43/41/38 52/49/38 53/50/38
f 54/49/38 43/41/38 53/50/38
f 54/49/38 55/40/38 43/41/38
f 56/39/38 43/41/38 55/40/38
f 56/39/38 57/42/38 43/41/38
f 58/43/38 43/41/38 57/42/38
f 58/43/38 59/44/38 43/41/38
f 60/45/38 43/41/38 59/44/38
f 60/45/38 61/46/38 43/41/38
f 51/47/38 43/41/38 61/46/38
f 62/41/39 63/40/39 64/39/39
f 65/49/39 63/40/39 62/41/39
f 62/41/39 64/39/39 66/42/39
f 62/41/39 66/42/39 67/43/39
f 62/41/39 67/43/39 68/44/39
f 62/41/39 68/44/39 69/45/39
f 62/41/39 69/45/39 70/46/39
f 62/41/39 70/46/39 71/47/40
f 62/41/39 71/47/40 72/48/39
f 65/49/39 62/41/39 73/50/39
f 62/41/39 74/49/39 73/50/39
f 62/41/39 75/40/39 74/49/39
f 62/41/39 76/39/39 75/40/39
f 62/41/39 77/42/39 76/39/39
f 62/41/39 78/43/39 77/42/39
f 62/41/39 79/44/39 78/43/39
f 62/41/39 80/45/39 79/44/39
f 62/41/39 81/46/39 80/45/39
f 62/41/39 82/47/40 81/46/39
f 62/41/39 72/48/39 82/47/40
