g train_standard
v 8.270224 4.537781 -26.86237
v -8.270224 4.537781 -26.86237
v 9.223124 7.526428 -27.56607
v -9.223124 7.526428 -27.56607
v 9.223124 7.526428 27.56607
v -9.223124 7.526428 27.56607
v 8.270224 4.537781 26.86234
v -8.270224 4.537781 26.86234
v 8.50103 7.292297 -25.46496
v -8.50103 7.292297 -25.46496
v 7.144243 24.56008 -27.32274
v -7.144243 24.56008 -27.32274
v 7.144243 24.56008 27.32457
v -7.144243 24.56008 27.32457
v 8.50103 7.292297 25.46496
v -8.50103 7.292297 25.46496
v 0 29.09197 27.60642
v 0 29.09197 -27.60642
v 4.341125 27.96962 27.51944
v 4.341125 27.96962 -27.51835
v -4.341125 27.96962 27.51944
v -4.341125 27.96962 -27.51835
v 2.125546 28.86876 -27.56239
v 2.125546 28.86876 27.56293
v -2.125546 28.86876 27.56293
v -2.125546 28.86876 -27.56239
v -6.034281 26.50534 -27.42054
v -6.034281 26.50534 27.42201
v 6.034282 26.50534 27.42201
v 6.034282 26.50534 -27.42054
v 9.223124 7.526428 -0.07289314
v -9.223124 7.526428 -0.07289314
v 8.270224 4.537781 -0.07289124
v -8.270224 4.537781 -0.07289124
v 7.144242 24.56008 -0.07289314
v -7.144243 24.56008 -0.07289314
v 8.50103 7.292298 -0.07289314
v -8.50103 7.292298 -0.07289314
v 0 29.09197 -0.0728941
v 4.341125 27.96961 -0.0728941
v -4.341125 27.96961 -0.0728941
v 2.125546 28.86876 -0.07289505
v -2.125546 28.86876 -0.07289124
v -6.034281 26.50534 -0.07289314
v 6.034282 26.50534 -0.07289314
v 0 24.56008 -27.32274
v 0 7.292297 -25.46496
v 0 7.526428 27.56607
v 0 4.537781 -26.86237
v 0 7.526428 -27.56607
v 0 7.526428 -0.07289314
v -5.482578 4.625 -11.13474
v -5.482578 2.024242 -12.85793
v -5.482578 4.625 -16.9435
v -4.553911 2.024401 -21.436
v -4.553911 4.552551 -23.33084
v -5.482578 2.024242 -21.02906
v -5.482578 4.625 -22.75226
v -5.482578 2.024242 -16.9435
v -3.282495 5.176086 -17.54725
v -3.282495 2.29895 -17.54725
v -3.282495 1.24585 -18.60035
v -3.282495 1.24585 -21.47747
v -3.282495 2.29895 -22.53057
v -3.282495 5.176086 -22.53057
v -4.478451 5.176086 -17.54725
v -4.478451 2.29895 -17.54725
v -4.478451 1.24585 -18.60035
v -4.478451 1.24585 -21.47747
v -4.478451 2.29895 -22.53057
v -4.478451 5.176086 -22.53057
v -3.282495 3.737549 -20.03891
v -4.478451 3.737549 -20.03891
v 3.282495 5.176086 -17.54725
v 3.282495 2.29895 -17.54725
v 3.282495 1.24585 -18.60035
v 3.282495 1.24585 -21.47747
v 3.282495 2.29895 -22.53057
v 3.282495 5.176086 -22.53057
v 4.478451 5.176086 -17.54725
v 4.478451 2.29895 -17.54725
v 4.478451 1.24585 -18.60035
v 4.478451 1.24585 -21.47747
v 4.478451 2.29895 -22.53057
v 4.478451 5.176086 -22.53057
v 3.282495 3.737549 -20.03891
v 4.478451 3.737549 -20.03891
v 5.482578 4.625 -11.13474
v 5.482578 2.024242 -12.85793
v 5.482578 4.625 -16.9435
v 4.553911 2.024401 -21.436
v 4.553911 4.552551 -23.33084
v 5.482578 2.024242 -21.02906
v 5.482578 4.625 -22.75226
v 5.482578 2.024242 -16.9435
v 4.553911 4.552551 10.55616
v 4.553911 2.024401 12.45099
v 5.482578 4.625 11.13474
v 5.482578 2.024242 12.85793
v 5.482578 4.625 16.9435
v 5.482578 2.024242 21.02906
v 5.482578 4.625 22.75226
v 5.482578 2.024242 16.9435
v 3.282495 5.176086 17.54725
v 3.282495 2.29895 17.54725
v 3.282495 1.24585 18.60035
v 3.282495 1.24585 21.47747
v 3.282495 2.29895 22.53057
v 3.282495 5.176086 22.53057
v 4.478451 5.176086 17.54725
v 4.478451 2.29895 17.54725
v 4.478451 1.24585 18.60035
v 4.478451 1.24585 21.47747
v 4.478451 2.29895 22.53057
v 4.478451 5.176086 22.53057
v 3.282495 3.737549 20.03891
v 4.478451 3.737549 20.03891
v -3.282495 5.176086 17.54725
v -3.282495 2.29895 17.54725
v -3.282495 1.24585 18.60035
v -3.282495 1.24585 21.47747
v -3.282495 2.29895 22.53057
v -3.282495 5.176086 22.53057
v -4.478451 5.176086 17.54725
v -4.478451 2.29895 17.54725
v -4.478451 1.24585 18.60035
v -4.478451 1.24585 21.47747
v -4.478451 2.29895 22.53057
v -4.478451 5.176086 22.53057
v -3.282495 3.737549 20.03891
v -4.478451 3.737549 20.03891
v -4.553911 4.552551 10.55616
v -4.553911 2.024401 12.45099
v -5.482578 4.625 11.13474
v -5.482578 2.024242 12.85793
v -5.482578 4.624998 16.9435
v -5.482578 2.024242 21.02906
v -5.482578 4.625 22.75226
v -5.482578 2.024242 16.9435
v -10.29029 0.7016286 30
v 10.29028 0.7016286 30
v -10.29029 0.7016286 -3.576279E-06
v 10.29028 0.7016286 -3.576279E-06
v -10.29029 0.7016286 -30
v 10.29028 0.7016286 -30
v 9.223124 7.526428 -27.56607
v 0 7.526428 -27.56607
v 9.223124 7.526428 -0.07289314
v -7.144243 24.56008 -27.32274
v -8.50103 7.292297 -25.46496
v -7.144243 24.56008 -0.07289314
v 7.144242 24.56008 -0.07289314
v 9.223124 7.526428 27.56607
v -7.144243 24.56008 27.32457
v 7.144243 24.56008 -27.32274
v -2.125546 28.86876 -27.56239
v -6.034281 26.50534 -27.42054
v 0 29.09197 -27.60642
v -7.144243 24.56008 -27.32274
v 7.144243 24.56008 27.32457
v 4.341125 27.96962 -27.51835
v 2.125546 28.86876 -27.56239
v 7.144243 24.56008 -27.32274
v 8.50103 7.292297 -25.46496
v -4.341125 27.96962 -27.51835
v 6.034282 26.50534 -27.42054
v -9.223124 7.526428 -27.56607
v -9.223124 7.526428 -0.07289314
v -9.223124 7.526428 27.56607
v -5.482578 2.024242 -21.02906
v -5.482578 4.625 -22.75226
v -4.478451 2.29895 -22.53057
v -3.282495 2.29895 -22.53057
v -3.282495 1.24585 -21.47747
v -3.282495 2.29895 -22.53057
v -3.282495 5.176086 -22.53057
v -4.478451 1.24585 -21.47747
v -4.478451 2.29895 -22.53057
v -4.478451 5.176086 -22.53057
v 4.478451 2.29895 -22.53057
v 3.282495 2.29895 -22.53057
v 3.282495 1.24585 -21.47747
v 3.282495 2.29895 -22.53057
v 3.282495 5.176086 -22.53057
v 4.478451 1.24585 -21.47747
v 4.478451 2.29895 -22.53057
v 4.478451 5.176086 -22.53057
v 5.482578 4.625 -22.75226
v 5.482578 2.024242 -21.02906
v 5.482578 4.625 11.13474
v 5.482578 2.024242 12.85793
v 3.282495 2.29895 17.54725
v 4.478451 2.29895 17.54725
v 3.282495 2.29895 17.54725
v 3.282495 5.176086 17.54725
v 3.282495 1.24585 18.60035
v 4.478451 5.176086 17.54725
v 4.478451 2.29895 17.54725
v 4.478451 1.24585 18.60035
v -3.282495 2.29895 17.54725
v -4.478451 2.29895 17.54725
v -3.282495 2.29895 17.54725
v -3.282495 5.176086 17.54725
v -3.282495 1.24585 18.60035
v -4.478451 2.29895 17.54725
v -4.478451 5.176086 17.54725
v -4.478451 1.24585 18.60035
v -5.482578 2.024242 12.85793
v -5.482578 4.625 11.13474
vt 0.4149834 0.5415128
vt 0.4149834 0.5415128
vt 0.4149834 0.562849
vt 0.4149834 0.562849
vt 0.4149834 0.562849
vt 0.4149834 0.562849
vt 0.4149834 0.5415128
vt 0.4149834 0.5415128
vt 0.6640876 0.04643399
vt 0.6640876 0.04643399
vt 0.4033754 0.4104972
vt 0.9998225 0.01189623
vt 0.9998225 0.01189623
vt 0.4033754 0.4104991
vt 0.6640876 0.04643399
vt 0.6640876 0.04643399
vt 0.405427 0.5364351
vt 0.5819797 0.9994659
vt 0.4043366 0.470067
vt 0.4043366 0.470065
vt 0.4043393 0.4702337
vt 0.4043393 0.4702318
vt 0.4048637 0.5027292
vt 0.4048637 0.502731
vt 0.4048664 0.5028979
vt 0.5376296 0.9977781
vt 0.4460844 0.9661783
vt 0.40378 0.4355733
vt 0.4037774 0.4354067
vt 0.4037773 0.4354047
vt 0.3670648 0.9070324
vt 0.5599228 0.5628491
vt 0.5599228 0.5415127
vt 0.5599228 0.5415127
vt 0.9998225 0.5095255
vt 0.9998225 0.5095255
vt 0.6640876 0.5095255
vt 0.6640876 0.5095255
vt 0.1941563 0.5359643
vt 0.1941563 0.470233
vt 0.1941563 0.4703984
vt 0.1941563 0.502579
vt 0.1941563 0.5027444
vt 0.1941563 0.4358886
vt 0.1941563 0.4357232
vt 0.5819797 0.9330306
vt 0.5819797 0.5867578
vt 0.391317 0.8156946
vt 0.4463763 0.5415127
vt 0.4463763 0.5628491
vt 0.391317 0.9070323
vt 0.6136225 0.4637766
vt 0.5541441 0.5397664
vt 0.4151278 0.4637766
vt 0.4139727 0.572527
vt 0.5188214 0.572527
vt 0.4139727 0.5857319
vt 0.5188213 0.5857319
vt 0.4151278 0.5397664
vt 0.4538497 0.567468
vt 0.4538524 0.567468
vt 0.4557829 0.567468
vt 0.4657175 0.5662525
vt 0.4450505 0.5662525
vt 0.4450505 0.5662525
vt 0.4538355 0.5851437
vt 0.4538381 0.5851437
vt 0.4557686 0.5851437
vt 0.4657175 0.5844348
vt 0.4450506 0.5844348
vt 0.4450506 0.5844348
vt 0.4545805 0.5765168
vt 0.4545771 0.538518
vt 0.4538497 0.567468
vt 0.4538524 0.567468
vt 0.4557829 0.567468
vt 0.4657175 0.5662525
vt 0.4450505 0.5662525
vt 0.4450505 0.5662525
vt 0.4538355 0.5851437
vt 0.4538381 0.5851437
vt 0.4557686 0.5851437
vt 0.4657175 0.5844348
vt 0.4450506 0.5844348
vt 0.4450506 0.5844348
vt 0.4545805 0.5765168
vt 0.4545771 0.538518
vt 0.6136225 0.4637766
vt 0.5541441 0.5397664
vt 0.4151278 0.4637766
vt 0.4139727 0.572527
vt 0.5188214 0.572527
vt 0.4139727 0.5857319
vt 0.5188213 0.5857319
vt 0.4151278 0.5397664
vt 0.5188214 0.572527
vt 0.4139727 0.572527
vt 0.5188213 0.5857319
vt 0.4139727 0.5857319
vt 0.4151278 0.4637766
vt 0.5539656 0.5397664
vt 0.613444 0.4637766
vt 0.4151278 0.5397664
vt 0.4657175 0.5662525
vt 0.4450505 0.5662525
vt 0.4450505 0.5662525
vt 0.4557765 0.567468
vt 0.4538459 0.567468
vt 0.4538434 0.567468
vt 0.4657175 0.5844348
vt 0.4450506 0.5844348
vt 0.4450506 0.5844348
vt 0.4557908 0.5851437
vt 0.4538603 0.5851437
vt 0.4538577 0.5851437
vt 0.4545805 0.5765168
vt 0.4545771 0.538518
vt 0.4657175 0.5662525
vt 0.4450505 0.5662525
vt 0.4450505 0.5662525
vt 0.4557765 0.567468
vt 0.4538459 0.567468
vt 0.4538434 0.567468
vt 0.4657175 0.5844348
vt 0.4450506 0.5844348
vt 0.4450506 0.5844348
vt 0.4557908 0.5851437
vt 0.4538603 0.5851437
vt 0.4538577 0.5851437
vt 0.4545805 0.5765168
vt 0.4545771 0.538518
vt 0.5188214 0.572527
vt 0.4139727 0.572527
vt 0.5188213 0.5857319
vt 0.4139727 0.5857319
vt 0.4151278 0.4637766
vt 0.5539656 0.5397664
vt 0.613444 0.4637766
vt 0.4151278 0.5397664
vt 0.000733532 0.5313982
vt 0.000733532 0.5555677
vt 0.03739632 0.5313982
vt 0.03739632 0.5555677
vt 0.000733532 0.5313982
vt 0.000733532 0.5555677
vt 0.3670648 0.8156946
vt 0.391317 0.8156946
vt 0.5599228 0.5628491
vt 0.4127647 0.9330306
vt 0.387593 0.5867578
vt 0.1941563 0.4104854
vt 0.1941563 0.4104854
vt 0.3670648 0.8156946
vt 0.9998225 0.01189623
vt 0.9998225 0.01189623
vt 0.4048664 0.5028959
vt 0.40378 0.4355714
vt 0.405427 0.5364333
vt 0.4033754 0.4104972
vt 0.4033754 0.4104991
vt 0.4904711 0.9883695
vt 0.5376296 0.9977781
vt 0.4127647 0.9330306
vt 0.387593 0.5867578
vt 0.4904711 0.9883695
vt 0.4460844 0.9661783
vt 0.3670648 0.8156946
vt 0.3670648 0.9070324
vt 0.3670648 0.8156946
vt 0.5539656 0.5397664
vt 0.613444 0.4637766
vt 0.4657175 0.5844348
vt 0.4657175 0.5662525
vt 0.4557765 0.567468
vt 0.4538459 0.567468
vt 0.4538434 0.567468
vt 0.4557908 0.5851437
vt 0.4538603 0.5851437
vt 0.4538577 0.5851437
vt 0.4657175 0.5844348
vt 0.4657175 0.5662525
vt 0.4557765 0.567468
vt 0.4538459 0.567468
vt 0.4538434 0.567468
vt 0.4557908 0.5851437
vt 0.4538603 0.5851437
vt 0.4538577 0.5851437
vt 0.613444 0.4637766
vt 0.5539656 0.5397664
vt 0.6136225 0.4637766
vt 0.5541441 0.5397664
vt 0.4657175 0.5662525
vt 0.4657175 0.5844348
vt 0.4538524 0.567468
vt 0.4538497 0.567468
vt 0.4557829 0.567468
vt 0.4538355 0.5851437
vt 0.4538381 0.5851437
vt 0.4557686 0.5851437
vt 0.4657175 0.5662525
vt 0.4657175 0.5844348
vt 0.4538524 0.567468
vt 0.4538497 0.567468
vt 0.4557829 0.567468
vt 0.4538381 0.5851437
vt 0.4538355 0.5851437
vt 0.4557686 0.5851437
vt 0.5541441 0.5397664
vt 0.6136225 0.4637766
vn 0.6513977 -0.3643914 -0.6655073
vn -0.6513977 -0.3643913 -0.6655072
vn 0.6616735 0.3243524 -0.6760057
vn -0.6616735 0.3243524 -0.6760056
vn 0.8073949 0.5900115 0
vn -0.8073949 0.5900115 0
vn 0.9527444 -0.3037729 0
vn -0.9527444 -0.3037728 0
vn 0.7079062 -0.02033515 -0.7060137
vn -0.7079062 -0.02033518 -0.7060137
vn 0.6755379 0.1509134 -0.7217158
vn -0.6755378 0.1509138 -0.7217159
vn 0.9557887 0.2940543 0
vn -0.9557887 0.2940542 0
vn 0.9969273 0.07833192 0
vn -0.9969273 0.07833189 0
vn 0 1 0
vn 0 0.6825711 -0.7308193
vn 0.522071 0.8529021 0
vn 0.3766507 0.571787 -0.7288305
vn -0.522071 0.8529019 0
vn -0.3766505 0.5717869 -0.7288307
vn 0.179979 0.659538 -0.7298063
vn 0.2426295 0.9701191 0
vn -0.2426295 0.9701191 0
vn -0.1799788 0.659538 -0.7298064
vn -0.5531518 0.4129268 -0.7235431
vn -0.7724286 0.6351016 0
vn 0.7724286 0.6351017 0
vn 0.553152 0.4129266 -0.723543
vn 0.8073949 0.5900115 0
vn -0.8073949 0.5900115 0
vn 0.9527444 -0.3037728 0
vn -0.9527444 -0.3037728 0
vn 0.9557887 0.2940541 0
vn -0.9557886 0.2940544 0
vn 0.9969273 0.07833193 0
vn -0.9969273 0.07833189 0
vn 0 1 0
vn 0.522071 0.8529021 0
vn -0.5220712 0.8529019 0
vn 0.2426295 0.9701191 0
vn -0.2426295 0.9701191 0
vn -0.7724287 0.6351016 0
vn 0.7724286 0.6351016 0
vn 0 -0.06726945 -0.9977348
vn 0 -0.1069695 -0.9942623
vn 0 1 0
vn 0 -0.2291917 -0.9733813
vn 0 0.6208093 -0.7839616
vn 0 1 0
vn -1 0 0
vn -1 0 0
vn -1 0 0
vn -0.4149152 -0.5244715 -0.7434885
vn -0.4149152 -0.5244715 -0.7434885
vn -0.9357845 -0.2032337 -0.2881033
vn -0.8411049 -0.3117752 -0.4419713
vn -1 0 0
vn 1 0 0
vn 1 0 0
vn 1 0 0
vn 0.8944272 -0.3162278 -0.3162278
vn 0.7345095 -0.2596884 -0.6269431
vn 0.7071068 0 -0.7071068
vn -1 0 0
vn -1 0 0
vn -1 0 0
vn -0.8944272 -0.3162278 -0.3162278
vn -0.7345095 -0.2596883 -0.6269431
vn -0.7071068 0 -0.7071068
vn 1 0 0
vn -1 0 0
vn -1 0 0
vn -1 0 0
vn -1 0 0
vn -0.8944272 -0.3162278 -0.3162278
vn -0.7345095 -0.2596883 -0.6269431
vn -0.7071068 0 -0.7071068
vn 1 0 0
vn 1 0 0
vn 1 0 0
vn 0.8944272 -0.3162278 -0.3162278
vn 0.7345095 -0.2596883 -0.6269431
vn 0.7071068 0 -0.7071068
vn -1 0 0
vn 1 0 0
vn 1 0 0
vn 1 0 0
vn 1 0 0
vn 0.4149147 -0.5244716 -0.7434886
vn 0.4149147 -0.5244716 -0.7434886
vn 0.9357844 -0.2032339 -0.2881034
vn 0.8411048 -0.3117755 -0.4419714
vn 1 0 0
vn 0.4149139 -0.5244719 -0.7434888
vn 0.4149139 -0.5244719 -0.7434888
vn 0.8411045 -0.3117758 -0.4419716
vn 0.9357843 -0.2032341 -0.2881035
vn 1 0 0
vn 1 0 0
vn 1 0 0
vn 1 0 0
vn -0.7071068 0 -0.7071068
vn -0.7345095 -0.2596884 -0.6269431
vn -0.8944272 -0.3162278 -0.3162278
vn -1 0 0
vn -1 0 0
vn -1 0 0
vn 0.7071068 0 -0.7071068
vn 0.7345095 -0.2596883 -0.6269431
vn 0.8944272 -0.3162278 -0.3162278
vn 1 0 0
vn 1 0 0
vn 1 0 0
vn -1 0 0
vn 1 0 0
vn 0.7071068 0 -0.7071068
vn 0.7345095 -0.2596883 -0.6269431
vn 0.8944272 -0.3162278 -0.3162278
vn 1 0 0
vn 1 0 0
vn 1 0 0
vn -0.7071068 0 -0.7071068
vn -0.7345095 -0.2596883 -0.6269431
vn -0.8944272 -0.3162278 -0.3162278
vn -1 0 0
vn -1 0 0
vn -1 0 0
vn 1 0 0
vn -1 0 0
vn -0.4149141 -0.5244718 -0.7434888
vn -0.4149141 -0.5244718 -0.7434888
vn -0.8411046 -0.3117757 -0.4419717
vn -0.9357844 -0.2032341 -0.2881035
vn -1 0 0
vn -1 0 0
vn -1 0 0
vn -1 0 0
vn 0 1 0
vn 0 1 0
vn 0 1 0
vn 0 1 0
vn 0 1 0
vn 0 1 0
vn 0.6616735 0.3243524 -0.6760057
vn 0 0.6208093 -0.7839616
vn 0.8073949 0.5900115 0
vn -0.6755378 0.1509138 -0.7217159
vn -0.7079062 -0.02033518 -0.7060137
vn -0.9557886 0.2940544 0
vn 0.9557887 0.2940541 0
vn 0.8073949 0.5900115 0
vn -0.9557887 0.2940542 0
vn 0.6755379 0.1509134 -0.7217158
vn -0.1799788 0.659538 -0.7298064
vn -0.5531518 0.4129268 -0.7235431
vn 0 0.6825711 -0.7308193
vn -0.6755378 0.1509138 -0.7217159
vn 0.9557887 0.2940543 0
vn 0.3766507 0.571787 -0.7288305
vn 0.179979 0.659538 -0.7298063
vn 0.6755379 0.1509134 -0.7217158
vn 0.7079062 -0.02033515 -0.7060137
vn -0.3766505 0.5717869 -0.7288307
vn 0.553152 0.4129266 -0.723543
vn -0.6616735 0.3243524 -0.6760056
vn -0.8073949 0.5900115 0
vn -0.8073949 0.5900115 0
vn -0.9357845 -0.2032337 -0.2881033
vn -0.8411049 -0.3117752 -0.4419713
vn -0.7345095 -0.2596883 -0.6269431
vn 0.7345095 -0.2596884 -0.6269431
vn 0.8944272 -0.3162278 -0.3162278
vn 0.7345095 -0.2596884 -0.6269431
vn 0.7071068 0 -0.7071068
vn -0.8944272 -0.3162278 -0.3162278
vn -0.7345095 -0.2596883 -0.6269431
vn -0.7071068 0 -0.7071068
vn 0.7345095 -0.2596883 -0.6269431
vn -0.7345095 -0.2596883 -0.6269431
vn -0.8944272 -0.3162278 -0.3162278
vn -0.7345095 -0.2596883 -0.6269431
vn -0.7071068 0 -0.7071068
vn 0.8944272 -0.3162278 -0.3162278
vn 0.7345095 -0.2596883 -0.6269431
vn 0.7071068 0 -0.7071068
vn 0.8411048 -0.3117755 -0.4419714
vn 0.9357844 -0.2032339 -0.2881034
vn 0.8411045 -0.3117758 -0.4419716
vn 0.9357843 -0.2032341 -0.2881035
vn -0.7345095 -0.2596884 -0.6269431
vn 0.7345095 -0.2596883 -0.6269431
vn -0.7345095 -0.2596884 -0.6269431
vn -0.7071068 0 -0.7071068
vn -0.8944272 -0.3162278 -0.3162278
vn 0.7071068 0 -0.7071068
vn 0.7345095 -0.2596883 -0.6269431
vn 0.8944272 -0.3162278 -0.3162278
vn 0.7345095 -0.2596883 -0.6269431
vn -0.7345095 -0.2596883 -0.6269431
vn 0.7345095 -0.2596883 -0.6269431
vn 0.7071068 0 -0.7071068
vn 0.8944272 -0.3162278 -0.3162278
vn -0.7345095 -0.2596883 -0.6269431
vn -0.7071068 0 -0.7071068
vn -0.8944272 -0.3162278 -0.3162278
vn -0.9357844 -0.2032341 -0.2881035
vn -0.8411046 -0.3117757 -0.4419717
g train_standard_0
f 148/148/148 33/33/33 1/1/1
f 7/7/7 33/33/33 148/148/148
f 5/5/5 7/7/7 148/148/148
f 36/36/36 38/38/38 16/16/16
f 10/10/10 38/38/38 36/36/36
f 12/12/12 10/10/10 36/36/36
f 35/35/35 37/37/37 9/9/9
f 15/15/15 37/37/37 35/35/35
f 13/13/13 15/15/15 35/35/35
f 46/46/46 166/166/166 163/163/163
f 47/47/47 46/46/46 163/163/163
f 149/149/149 46/46/46 47/47/47
f 150/150/150 149/149/149 47/47/47
f 28/28/28 151/151/151 14/14/14
f 44/44/44 151/151/151 28/28/28
f 21/21/21 44/44/44 28/28/28
f 41/41/41 44/44/44 21/21/21
f 25/25/25 41/41/41 21/21/21
f 43/43/43 41/41/41 25/25/25
f 17/17/17 43/43/43 25/25/25
f 39/39/39 43/43/43 17/17/17
f 24/24/24 39/39/39 17/17/17
f 42/42/42 39/39/39 24/24/24
f 19/19/19 42/42/42 24/24/24
f 40/40/40 42/42/42 19/19/19
f 45/45/45 40/40/40 19/19/19
f 30/30/30 40/40/40 45/45/45
f 11/11/11 30/30/30 45/45/45
f 51/51/51 167/167/167 168/168/168
f 48/48/48 51/51/51 168/168/168
f 31/31/31 51/51/51 48/48/48
f 153/153/153 31/31/31 48/48/48
f 32/32/32 8/8/8 6/6/6
f 34/34/34 8/8/8 32/32/32
f 2/2/2 34/34/34 32/32/32
f 154/154/154 36/36/36 16/16/16
f 155/155/155 35/35/35 9/9/9
f 20/20/20 40/40/40 30/30/30
f 42/42/42 40/40/40 20/20/20
f 23/23/23 42/42/42 20/20/20
f 39/39/39 42/42/42 23/23/23
f 158/158/158 39/39/39 23/23/23
f 43/43/43 39/39/39 158/158/158
f 156/156/156 43/43/43 158/158/158
f 41/41/41 43/43/43 156/156/156
f 22/22/22 41/41/41 156/156/156
f 44/44/44 41/41/41 22/22/22
f 157/157/157 44/44/44 22/22/22
f 151/151/151 44/44/44 157/157/157
f 159/159/159 151/151/151 157/157/157
f 29/29/29 45/45/45 19/19/19
f 152/152/152 45/45/45 29/29/29
f 160/160/160 152/152/152 29/29/29
f 164/164/164 47/47/47 163/163/163
f 169/169/169 48/48/48 168/168/168
f 54/54/54 53/53/53 52/52/52
f 59/59/59 53/53/53 54/54/54
f 170/170/170 59/59/59 54/54/54
f 56/56/56 57/57/57 58/58/58
f 55/55/55 57/57/57 56/56/56
f 170/170/170 54/54/54 171/171/171
f 70/70/70 63/63/63 69/69/69
f 64/64/64 63/63/63 70/70/70
f 65/65/65 172/172/172 71/71/71
f 173/173/173 172/172/172 65/65/65
f 72/72/72 62/62/62 174/174/174
f 61/61/61 62/62/62 72/72/72
f 60/60/60 61/61/61 72/72/72
f 175/175/175 72/72/72 174/174/174
f 176/176/176 72/72/72 175/175/175
f 73/73/73 67/67/67 66/66/66
f 68/68/68 67/67/67 73/73/73
f 177/177/177 68/68/68 73/73/73
f 178/178/178 73/73/73 179/179/179
f 177/177/177 73/73/73 178/178/178
f 84/84/84 77/77/77 78/78/78
f 83/83/83 77/77/77 84/84/84
f 79/79/79 180/180/180 181/181/181
f 85/85/85 180/180/180 79/79/79
f 86/86/86 75/75/75 74/74/74
f 76/76/76 75/75/75 86/86/86
f 182/182/182 76/76/76 86/86/86
f 86/86/86 183/183/183 182/182/182
f 184/184/184 183/183/183 86/86/86
f 87/87/87 82/82/82 185/185/185
f 81/81/81 82/82/82 87/87/87
f 80/80/80 81/81/81 87/87/87
f 87/87/87 186/186/186 187/187/187
f 185/185/185 186/186/186 87/87/87
f 90/90/90 95/95/95 189/189/189
f 89/89/89 95/95/95 90/90/90
f 88/88/88 89/89/89 90/90/90
f 92/92/92 93/93/93 91/91/91
f 94/94/94 93/93/93 92/92/92
f 188/188/188 90/90/90 189/189/189
f 97/97/97 98/98/98 99/99/99
f 96/96/96 98/98/98 97/97/97
f 100/100/100 191/191/191 190/190/190
f 103/103/103 191/191/191 100/100/100
f 101/101/101 103/103/103 100/100/100
f 101/101/101 100/100/100 102/102/102
f 105/105/105 110/110/110 111/111/111
f 104/104/104 110/110/110 105/105/105
f 112/112/112 192/192/192 193/193/193
f 106/106/106 192/192/192 112/112/112
f 116/116/116 196/196/196 107/107/107
f 194/194/194 196/196/196 116/116/116
f 195/195/195 194/194/194 116/116/116
f 108/108/108 116/116/116 107/107/107
f 109/109/109 116/116/116 108/108/108
f 117/117/117 198/198/198 197/197/197
f 199/199/199 198/198/198 117/117/117
f 113/113/113 199/199/199 117/117/117
f 114/114/114 117/117/117 115/115/115
f 113/113/113 117/117/117 114/114/114
f 119/119/119 124/124/124 118/118/118
f 125/125/125 124/124/124 119/119/119
f 126/126/126 200/200/200 120/120/120
f 201/201/201 200/200/200 126/126/126
f 130/130/130 202/202/202 203/203/203
f 204/204/204 202/202/202 130/130/130
f 121/121/121 204/204/204 130/130/130
f 130/130/130 122/122/122 121/121/121
f 123/123/123 122/122/122 130/130/130
f 131/131/131 207/207/207 127/127/127
f 205/205/205 207/207/207 131/131/131
f 206/206/206 205/205/205 131/131/131
f 131/131/131 128/128/128 129/129/129
f 127/127/127 128/128/128 131/131/131
f 133/133/133 134/134/134 132/132/132
f 135/135/135 134/134/134 133/133/133
f 136/136/136 139/139/139 137/137/137
f 208/208/208 139/139/139 136/136/136
f 209/209/209 208/208/208 136/136/136
f 138/138/138 136/136/136 137/137/137
f 50/50/50 49/49/49 2/2/2
f 1/1/1 49/49/49 50/50/50
f 3/3/3 1/1/1 50/50/50
f 148/148/148 1/1/1 3/3/3
f 51/51/51 147/147/147 167/167/167
f 146/146/146 147/147/147 51/51/51
f 31/31/31 146/146/146 51/51/51
f 4/4/4 2/2/2 32/32/32
f 50/50/50 2/2/2 4/4/4
f 46/46/46 165/165/165 26/26/26
f 27/27/27 165/165/165 46/46/46
f 149/149/149 27/27/27 46/46/46
f 152/152/152 11/11/11 45/45/45
f 46/46/46 162/162/162 161/161/161
f 18/18/18 162/162/162 46/46/46
f 26/26/26 18/18/18 46/46/46
f 161/161/161 166/166/166 46/46/46
g train_standard_1
f 142/142/142 145/145/145 144/144/144
f 143/143/143 145/145/145 142/142/142
f 140/140/140 143/143/143 142/142/142
f 141/141/141 143/143/143 140/140/140
